<?xml version="1.0" encoding="UTF-8"?>
<svg width="300px" height="189px" viewBox="0 0 300 189" version="1.1" xmlns="http://www.w3.org/2000/svg" xmlns:xlink="http://www.w3.org/1999/xlink">
    <title>TypeCFG</title>
    <defs>
        <linearGradient x1="50%" y1="22.8014147%" x2="50%" y2="99.6859164%" id="linearGradient-1">
            <stop stop-color="#E1E1E1" offset="0%"></stop>
            <stop stop-color="#EEEEEE" offset="100%"></stop>
        </linearGradient>
        <path d="M40.096,115 L50.464,115 L50.464,142 L40.096,142 L40.096,115 Z M87.1687968,115 L80.848,139.408 C79.9839957,142.624016 79.156004,145.22799 78.364,147.22 C77.571996,149.21201 76.6360054,150.747995 75.556,151.828 C74.4759946,152.908005 73.1800076,153.615998 71.668,153.952 C70.1559924,154.288002 68.2480115,154.456 65.944,154.456 L61.912,154.456 L61.912,147.04 C62.7760043,147.184001 63.6399957,147.256 64.504,147.256 C66.3280091,147.256 67.635996,146.776005 68.428,145.816 C69.220004,144.855995 69.6879993,143.584008 69.832,142 L62.2539331,115 L71.851871,115 L75.088,130.048 L75.232,130.048 L78.0636129,115 L87.1687968,115 Z M93.88,115 L104.342882,115 C103.991626,116.978084 103.816,119.522072 103.816,122.632 C103.816,126.856021 104.139997,130.035989 104.788,132.172 C105.436003,134.308011 106.863989,135.376 109.072,135.376 C111.232011,135.376 112.635997,134.308011 113.284,132.172 C113.932003,130.035989 114.256,126.856021 114.256,122.632 C114.256,119.522072 114.080374,116.978084 113.729118,115 L123.7375,115 C124.0405,117.227734 124.192,119.771731 124.192,122.632 C124.192,129.832036 123.23201,134.991984 121.312,138.112 C119.39199,141.232016 116.39202,142.792 112.312,142.792 C110.439991,142.792 108.844007,142.444003 107.524,141.748 C106.203993,141.051997 105.016005,139.936008 103.96,138.4 L103.816,138.4 L103.816,154.456 L93.88,154.456 L93.88,115 Z M138.476521,114.999999 C138.409507,115.575998 138.376,116.151997 138.376,116.728 L138.376,118.24 L148.528,118.24 C148.489408,117.043638 148.419788,115.963645 148.319139,115 L157.625996,115 C157.896666,117.109459 158.032,119.413443 158.032,121.912 L158.032,124.144 L138.376,124.144 L138.376,127.24 C138.376,128.392006 138.459999,129.507995 138.628,130.588 C138.796001,131.668005 139.071998,132.627996 139.456,133.468 C139.840002,134.308004 140.343997,134.979997 140.968,135.484 C141.592003,135.988003 142.359995,136.24 143.272,136.24 C144.952008,136.24 146.175996,135.640006 146.944,134.44 C147.712004,133.239994 148.239999,131.416012 148.528,128.968 L157.456,128.968 C157.263999,133.480023 156.064011,136.911988 153.856,139.264 C151.647989,141.616012 148.168024,142.792 143.416,142.792 C139.815982,142.792 137.00801,142.192006 134.992,140.992 C132.97599,139.791994 131.488005,138.20801 130.528,136.24 C129.567995,134.27199 128.980001,132.064012 128.764,129.616 C128.547999,127.167988 128.44,124.720012 128.44,122.272 C128.44,119.757654 128.609373,117.333677 128.948124,115 L138.476521,115 Z M162.43078,115 L172.802372,115 C172.795457,115.651686 172.792,116.323686 172.792,117.016 C172.792,120.904019 172.923999,124.047988 173.188,126.448 C173.452001,128.848012 173.859997,130.707993 174.412,132.028 C174.964003,133.348007 175.659996,134.235998 176.5,134.692 C177.340004,135.148002 178.311994,135.376 179.416,135.376 C180.328005,135.376 181.179996,135.220002 181.972,134.908 C182.764004,134.595998 183.447997,133.972005 184.024,133.036 C184.600003,132.099995 185.055998,130.780009 185.392,129.076 C185.728002,127.371991 185.896,125.128014 185.896,122.344 L196.264,122.344 C196.264,125.128014 196.048002,127.767988 195.616,130.264 C195.183998,132.760012 194.380006,134.943991 193.204,136.816 C192.027994,138.688009 190.372011,140.151995 188.236,141.208 C186.099989,142.264005 183.328017,142.792 179.92,142.792 C176.031981,142.792 172.936012,142.168006 170.632,140.92 C168.327988,139.671994 166.564006,137.872012 165.34,135.52 C164.115994,133.167988 163.324002,130.360016 162.964,127.096 C162.603998,123.831984 162.424,120.23202 162.424,116.296 C162.424,115.860231 162.426261,115.428231 162.430783,115 Z M202.168,115 L229.816,115 L229.816,119.68 L212.536,119.68 L212.536,142 L202.168,142 L202.168,115 Z M235.002585,115 L245.368209,115 C245.36807,115.07177 245.368,115.14377 245.368,115.216 C245.368,118.288015 245.463999,121.071988 245.656,123.568 C245.848001,126.064012 246.195997,128.187991 246.7,129.94 C247.204003,131.692009 247.923995,133.035995 248.86,133.972 C249.796005,134.908005 251.007993,135.376 252.496,135.376 C253.120003,135.376 253.803996,135.208002 254.548,134.872 C255.292004,134.535998 255.987997,134.032003 256.636,133.36 C257.284003,132.687997 257.823998,131.836005 258.256,130.804 C258.688002,129.771995 258.904,128.560007 258.904,127.168 L258.904,121.912 L252.064,121.912 L252.064,115 L268.84,115 L268.84,142 L261.208,142 L261.208,137.248 L261.064,137.248 C259.815994,139.26401 258.316009,140.691996 256.564,141.532 C254.811991,142.372004 252.712012,142.792 250.264,142.792 C247.095984,142.792 244.51601,142.240006 242.524,141.136 C240.53199,140.031994 238.972006,138.328012 237.844,136.024 C236.715994,133.719988 235.960002,130.876017 235.576,127.492 C235.191998,124.107983 235,120.184022 235,115.72 C235,115.478348 235.000864,115.238348 235.002591,115 Z" id="path-2"></path>
        <filter x="-0.2%" y="-1.3%" width="100.4%" height="105.1%" filterUnits="objectBoundingBox" id="filter-3">
            <feMorphology radius="0.5" operator="erode" in="SourceAlpha" result="shadowSpreadOuter1"></feMorphology>
            <feOffset dx="0" dy="1" in="shadowSpreadOuter1" result="shadowOffsetOuter1"></feOffset>
            <feGaussianBlur stdDeviation="0.5" in="shadowOffsetOuter1" result="shadowBlurOuter1"></feGaussianBlur>
            <feColorMatrix values="0 0 0 0 0   0 0 0 0 0   0 0 0 0 0  0 0 0 0.5 0" type="matrix" in="shadowBlurOuter1"></feColorMatrix>
        </filter>
    </defs>
    <g id="Page-1" stroke="none" stroke-width="1" fill="none" fill-rule="evenodd">
        <g id="TypeCFG">
            <path d="M268.84,115 L268.84,114.28 L252.064,114.28 L252.064,115 L245.368209,115 C245.380467,108.680706 245.932392,104.14475 247.024,101.392 C248.128006,98.6079861 249.927988,97.216 252.424,97.216 C253.480005,97.216 254.379996,97.4919972 255.124,98.044 C255.868004,98.5960028 256.479998,99.2919958 256.96,100.132 C257.440002,100.972004 257.787999,101.895995 258.004,102.904 C258.220001,103.912005 258.328,104.895995 258.328,105.856 L268.264,105.856 C268.264,100.623974 267.016012,96.604014 264.52,93.796 C262.023988,90.987986 257.944028,89.584 252.28,89.584 C248.967983,89.584 246.208011,90.1359945 244,91.24 C241.791989,92.3440055 240.016007,93.9879891 238.672,96.172 C237.327993,98.3560109 236.380003,101.079984 235.828,104.344 C235.306875,107.425435 235.031741,110.977403 235.002591,115 L229.816,115 L229.816,111.184 L212.536,111.184 L212.536,99.088 L230.896,99.088 L230.896,90.592 L202.168,90.592 L202.168,115 L172.802372,115 C172.831895,112.217753 172.924437,109.805769 173.08,107.764 C173.272001,105.243987 173.607998,103.204008 174.088,101.644 C174.568002,100.083992 175.227996,98.9560035 176.068,98.26 C176.908004,97.5639965 177.975994,97.216 179.272,97.216 C181.624012,97.216 183.243996,98.0679915 184.132,99.772 C185.020004,101.476009 185.464,104.199981 185.464,107.944 L195.832,107.944 C195.832,106.071991 195.700001,104.068011 195.436,101.932 C195.171999,99.7959893 194.512005,97.8040092 193.456,95.956 C192.399995,94.1079908 190.804011,92.584006 188.668,91.384 C186.531989,90.183994 183.616018,89.584 179.92,89.584 C176.031981,89.584 172.936012,90.2439934 170.632,91.564 C168.327988,92.8840066 166.564006,94.7199882 165.34,97.072 C164.115994,99.4240118 163.324002,102.243984 162.964,105.532 C162.644347,108.451496 162.46661,111.60747 162.430783,115 L157.625996,115 C157.574273,114.596897 157.517607,114.200897 157.456,113.812 C157.071998,111.387988 156.352005,109.324009 155.296,107.62 C154.239995,105.915991 152.788009,104.596005 150.94,103.66 C149.091991,102.723995 146.728014,102.256 143.848,102.256 C140.487983,102.256 137.80001,102.807994 135.784,103.912 C133.76799,105.016006 132.220005,106.503991 131.14,108.376 C130.059995,110.248009 129.340002,112.383988 128.98,114.784 C128.969213,114.855914 128.958587,114.927914 128.948124,115 L123.7375,115 C123.277769,111.619952 122.469271,108.967963 121.312,107.044 C119.39199,103.851984 116.39202,102.256 112.312,102.256 C110.29599,102.256 108.604007,102.651996 107.236,103.444 C105.867993,104.236004 104.632006,105.543991 103.528,107.368 L103.384,107.368 L103.384,103.264 L93.88,103.264 L93.88,115 L87.1687968,115 L90.208,103.264 L80.272,103.264 L78.0636129,115 L71.851871,115 L69.328,103.264 L58.96,103.264 L62.2539331,115 L50.464,115 L50.464,99.088 L61.696,99.088 L61.696,90.592 L28.864,90.592 L28.864,99.088 L40.096,99.088 L40.096,115 L0,115 L0,30 L300,30 L300,115 L268.84,115 Z M148.319139,115 L138.476521,115 C138.515612,114.664001 138.566105,114.328001 138.628,113.992 C138.796001,113.079995 139.071998,112.252004 139.456,111.508 C139.840002,110.763996 140.355997,110.164002 141.004,109.708 C141.652003,109.251998 142.479995,109.024 143.488,109.024 C144.496005,109.024 145.323997,109.227998 145.972,109.636 C146.620003,110.044002 147.123998,110.643996 147.484,111.436 C147.844002,112.228004 148.095999,113.187994 148.24,114.316 C148.268224,114.537086 148.294603,114.765086 148.319139,115 Z M113.729118,115 L104.342882,115 C104.468716,114.291376 104.617088,113.655377 104.788,113.092 C105.436003,110.955989 106.863989,109.888 109.072,109.888 C111.232011,109.888 112.635997,110.955989 113.284,113.092 C113.454912,113.655377 113.603284,114.291376 113.729118,115 Z" id="Combined-Shape" fill="#1497E2"></path>
            <rect id="Rectangle" fill="#1497E2" x="0" y="0" width="300" height="61" rx="4"></rect>
            <rect id="Rectangle" fill="#1976AB" x="0" y="114" width="300" height="75"></rect>
            <g id="Combined-Shape">
                <use fill="black" fill-opacity="1" filter="url(#filter-3)" xlink:href="#path-2"></use>
                <use fill="url(#linearGradient-1)" fill-rule="evenodd" xlink:href="#path-2"></use>
            </g>
        </g>
    </g>
</svg>